<?xml version="1.0" encoding="utf-8"?>

<!DOCTYPE svg PUBLIC "-//W3C//DTD SVG 1.1//EN" "http://www.w3.org/Graphics/SVG/1.1/DTD/svg11.dtd">
<!-- Uploaded to: SVG Repo, www.svgrepo.com, Generator: SVG Repo Mixer Tools -->
<svg height="800px" width="800px" version="1.1" id="_x32_" xmlns="http://www.w3.org/2000/svg" xmlns:xlink="http://www.w3.org/1999/xlink" 
	 viewBox="0 0 512 512"  xml:space="preserve">
<style type="text/css">
	.st0{fill:#229522;}
</style>
<g>
	<path class="st0" d="M512,121.346c0-2.315-0.613-4.631-1.856-6.691L497.63,93.84v-0.017c-2.384-3.916-6.606-6.283-11.136-6.283
		l-1.345,0.077l-4.035,0.426c-6.045,0.639-10.829,5.389-11.527,11.426l-2.997,26.212c-0.102,0.936-0.732,1.754-1.635,2.078
		l-23.105,8.624c-3.031,1.132-5.534,3.372-7.015,6.258l-8.31,16.287l-1.294,1.183l-17.555,7.237l1.073,10.199l0.016,0.264
		c0,0.852-0.425,1.669-1.174,2.146l-17.453,11.135l-0.851-8.088c-0.29-2.886-1.55-5.542-3.508-7.594l-11.817-12.37l0.069,0.077
		c-2.486-2.622-5.909-4.044-9.434-4.044l-0.255,0.009c-3.677,0.085-7.117,1.711-9.501,4.444l-5.858,6.743
		c-2.06,2.367-3.184,5.406-3.167,8.513l0.068,1.354l1.89,18.066l0.018,0.255l-0.681,1.712l-1.72,0.774
		c-1.209-0.102-2.197-0.996-2.316-2.214l-2.299-21.786v-0.256l0.12-0.826l4.938-14.771c0.443-1.353,0.664-2.741,0.664-4.104
		c0-5.125-3.049-9.926-8.02-11.995l-15.307-6.343l-11.017,11.826l-1.583,0.783l-3.951,0.418l2.929-3.517
		c1.464-1.737,2.23-3.925,2.214-6.112c0-1.056-0.171-2.112-0.511-3.133l-0.018-0.043c-1.124-3.167-3.848-5.526-7.168-6.164
		l0.374,0.068l-31.006-6.181l-2.486-0.145l-0.374-0.025l-99.488,7.943h-0.8l-123.139-9.211v0.008l-0.971-0.042
		c-4.546,0-8.598,2.4-10.931,6.112l-0.629-0.161v0.008l-1.295,1.601l-1.14,0.273l-0.954-0.188l-0.562-0.221l-3.814-1.54
		l-0.034-0.018v0.009c-1.174-0.477-2.383-0.698-3.558-0.698c-1.788,0-3.541,0.494-5.074,1.465c-2.605,1.626-4.239,4.384-4.461,7.423
		l-1.413,20.799l-0.068,0.57L0.204,226.99L0,229.298c0,1.353,0.204,2.698,0.63,4.001l24.145,74.996
		c1.021,3.158,3.2,5.823,6.129,7.416l21.811,11.944c0.716,0.392,1.209,1.124,1.295,1.967l0.613,5.755
		c0.511,4.904,4.631,8.556,9.484,8.556l0.953-0.052l0.137-0.008l18.168-1.916l-0.051,0.009l0.204-0.009l1.379,0.4l31.466,20.68
		c2.146,1.404,4.632,2.128,7.152,2.128l1.294-0.068l44.457-4.666l0.051-0.008l0.221-0.009l1.584,0.561l8.36,6.786l0.92,1.685
		l0.29,2.818c0.443,4.282,3.014,8.036,6.76,10.071l29.662,15.912l2.162-11.357c0.204-1.149,1.192-1.992,2.367-2.044l5.363-0.229
		l0.102-0.009c0.903,0,1.754,0.494,2.214,1.294l-0.017-0.026l14.814,25.873c1.652,2.903,4.376,5.048,7.577,6.001l21.318,6.317
		l0.034,0.008c0.868,0.256,1.77,0.384,2.673,0.384c2.179,0,4.359-0.758,6.113-2.213c2.196-1.831,3.439-4.538,3.439-7.348
		l-0.05-0.954v-0.025l-1.754-16.696l-0.018-0.272l0.902-1.941l26.051-21.897l1.618-0.595l0.324,0.016l34.582,4.495l0.068,0.009
		l1.158,0.068c2.469,0.009,4.852-0.945,6.658-2.698l0.016-0.018c1.822-1.804,2.861-4.248,2.861-6.819l-0.051-0.979l-1.056-10.046
		l-0.018-0.281c0-1.234,0.971-2.367,2.282-2.494l19.121-2.01l0.068-0.009l0.187-0.008l0.647,0.085l0.171,0.043l17.162,4.274
		c1.039,0.255,2.095,0.384,3.151,0.384c3.456,0,6.81-1.379,9.297-3.916l2.996-3.099l1.788-0.749l1.583,0.562l7.288,5.908
		l0.953,1.908l0.323,15.605c0.12,5.245,3.355,9.918,8.276,11.826l25.744,9.995c1.106,0.425,2.282,0.647,3.457,0.647
		c2.06,0,4.103-0.673,5.806-1.967c2.333-1.797,3.728-4.606,3.728-7.56l-0.05-1.022l-1.992-18.959
		c-0.256-2.401-1.175-4.708-2.674-6.64l-25.03-32.02l-0.527-1.558l0.272-1.124l34.105-67.708c0.92-1.83,1.396-3.831,1.396-5.849
		c0-1.685-0.341-3.388-1.004-4.981l-2.333-5.567l-0.954-44.382v-0.008l0.783-1.839l21.744-20.594
		c1.907-1.822,2.962-4.316,2.98-6.912l-0.017-0.392v0.034c-0.084-2.58-1.294-4.904-3.132-6.606l16.43-32.317
		C511.523,125.391,512,123.365,512,121.346z M482.22,98.445l4.036-0.425l0.238-0.018c0.528,0.009,1.022,0.222,1.448,0.528h-5.892
		C482.118,98.522,482.152,98.454,482.22,98.445z M224.875,140.561l45.803-3.652l1.413,0.085l28.418,5.662l-3.372,4.069
		c-1.464,1.746-2.214,3.916-2.214,6.104c0,1.532,0.375,3.082,1.124,4.486v0.018c1.686,3.124,4.938,5.031,8.428,5.031l0.886-0.043
		h0.034l6.266-0.664c3.098-0.323,5.993-1.754,8.139-4.053l6.078-6.513l8.598,3.568c0.971,0.391,1.55,1.336,1.55,2.324l-0.119,0.809
		l-3.763,11.238h-107.27V140.561z M163.22,157.078c0.239-0.724,0.902-1.218,1.668-1.226l9.825-0.051l3.082-9.314
		c0.238-0.724,0.92-1.208,1.669-1.208c0.766,0,1.447,0.485,1.686,1.208l3.064,9.314l9.825,0.051c0.766,0.009,1.43,0.503,1.668,1.226
		c0.238,0.724-0.017,1.515-0.63,1.967l-7.918,5.806l2.997,9.356c0.22,0.724-0.034,1.515-0.648,1.967
		c-0.613,0.443-1.447,0.452-2.076,0.009l-7.969-5.738l-7.969,5.738c-0.613,0.443-1.447,0.434-2.06-0.009
		c-0.613-0.452-0.886-1.243-0.647-1.967l2.98-9.356l-7.917-5.806C163.238,158.593,162.982,157.801,163.22,157.078z M190.157,261.385
		c0.22,0.724-0.034,1.515-0.648,1.967c-0.613,0.443-1.447,0.452-2.076,0.009l-7.969-5.738l-7.969,5.738
		c-0.613,0.443-1.447,0.434-2.06-0.009c-0.613-0.452-0.886-1.243-0.647-1.967l2.98-9.356l-7.917-5.806
		c-0.613-0.452-0.868-1.243-0.63-1.967c0.239-0.724,0.902-1.218,1.668-1.226l9.825-0.05l3.082-9.314
		c0.238-0.724,0.92-1.208,1.669-1.208c0.766,0,1.447,0.484,1.686,1.208l3.064,9.314l9.825,0.05c0.766,0.009,1.43,0.503,1.668,1.226
		c0.238,0.724-0.017,1.515-0.63,1.967l-7.918,5.806L190.157,261.385z M148.373,190.076c0.238-0.724,0.92-1.208,1.668-1.208
		c0.766,0,1.447,0.485,1.686,1.208l3.064,9.314l9.825,0.05c0.766,0.009,1.43,0.503,1.668,1.227c0.238,0.724-0.018,1.515-0.63,1.967
		l-7.918,5.806l2.997,9.356c0.221,0.724-0.034,1.515-0.648,1.967c-0.613,0.443-1.447,0.452-2.076,0.008l-7.969-5.738l-7.969,5.738
		c-0.613,0.443-1.447,0.434-2.06-0.008c-0.613-0.452-0.886-1.243-0.647-1.967l2.98-9.356l-7.918-5.806
		c-0.613-0.452-0.868-1.243-0.63-1.967c0.239-0.724,0.902-1.218,1.669-1.227l9.825-0.05L148.373,190.076z M103.285,157.078
		c0.239-0.724,0.902-1.218,1.668-1.226l9.825-0.051l3.082-9.314c0.238-0.724,0.92-1.208,1.668-1.208
		c0.766,0,1.447,0.485,1.686,1.208l3.064,9.314l9.825,0.051c0.766,0.009,1.43,0.503,1.668,1.226c0.238,0.724-0.017,1.515-0.63,1.967
		l-7.917,5.806l2.997,9.356c0.22,0.724-0.034,1.515-0.648,1.967c-0.613,0.443-1.447,0.452-2.076,0.009l-7.969-5.738l-7.969,5.738
		c-0.613,0.443-1.447,0.434-2.06-0.009c-0.613-0.452-0.886-1.243-0.647-1.967l2.98-9.356l-7.918-5.806
		C103.302,158.593,103.047,157.801,103.285,157.078z M103.285,244.256c0.239-0.724,0.902-1.218,1.668-1.226l9.825-0.05l3.082-9.314
		c0.238-0.724,0.92-1.208,1.668-1.208c0.766,0,1.447,0.484,1.686,1.208l3.064,9.314l9.825,0.05c0.766,0.009,1.43,0.503,1.668,1.226
		c0.238,0.724-0.017,1.515-0.63,1.967l-7.917,5.806l2.997,9.356c0.22,0.724-0.034,1.515-0.648,1.967
		c-0.613,0.443-1.447,0.452-2.076,0.009l-7.969-5.738l-7.969,5.738c-0.613,0.443-1.447,0.434-2.06-0.009
		c-0.613-0.452-0.886-1.243-0.647-1.967l2.98-9.356l-7.918-5.806C103.302,245.771,103.047,244.979,103.285,244.256z M84.079,190.076
		c0.238-0.724,0.92-1.208,1.669-1.208c0.766,0,1.447,0.485,1.686,1.208l3.064,9.314l9.825,0.05c0.766,0.009,1.43,0.503,1.668,1.227
		c0.238,0.724-0.017,1.515-0.63,1.967l-7.918,5.806l2.997,9.356c0.22,0.724-0.034,1.515-0.648,1.967
		c-0.613,0.443-1.447,0.452-2.077,0.008l-7.969-5.738l-7.969,5.738c-0.613,0.443-1.447,0.434-2.06-0.008
		c-0.613-0.452-0.886-1.243-0.647-1.967l2.98-9.356l-7.918-5.806c-0.613-0.452-0.868-1.243-0.63-1.967
		c0.239-0.724,0.902-1.218,1.668-1.227l9.825-0.05L84.079,190.076z M43.35,157.078c0.239-0.724,0.902-1.218,1.668-1.226l9.825-0.051
		l3.082-9.314c0.238-0.724,0.92-1.208,1.668-1.208c0.766,0,1.447,0.485,1.686,1.208l3.064,9.314l9.825,0.051
		c0.766,0.009,1.43,0.503,1.668,1.226c0.238,0.724-0.018,1.515-0.63,1.967l-7.918,5.806l2.997,9.356
		c0.221,0.724-0.034,1.515-0.648,1.967c-0.613,0.443-1.447,0.452-2.076,0.009l-7.969-5.738l-7.969,5.738
		c-0.613,0.443-1.447,0.434-2.06-0.009c-0.613-0.452-0.886-1.243-0.647-1.967l2.98-9.356l-7.918-5.806
		C43.368,158.593,43.112,157.801,43.35,157.078z M43.35,244.256c0.239-0.724,0.902-1.218,1.668-1.226l9.825-0.05l3.082-9.314
		c0.238-0.724,0.92-1.208,1.668-1.208c0.766,0,1.447,0.484,1.686,1.208l3.064,9.314l9.825,0.05c0.766,0.009,1.43,0.503,1.668,1.226
		c0.238,0.724-0.018,1.515-0.63,1.967l-7.918,5.806l2.997,9.356c0.221,0.724-0.034,1.515-0.648,1.967
		c-0.613,0.443-1.447,0.452-2.076,0.009l-7.969-5.738l-7.969,5.738c-0.613,0.443-1.447,0.434-2.06-0.009
		c-0.613-0.452-0.886-1.243-0.647-1.967l2.98-9.356l-7.918-5.806C43.368,245.771,43.112,244.979,43.35,244.256z M346.106,356.267
		l0.068,1.388l0.937,8.854l-33.424-4.341l-1.669-0.111c-3.048,0-6.011,1.081-8.36,3.056l-18.338,15.435h-47.029
		c-2.35-3.942-6.589-6.394-11.187-6.394l-0.545,0.017v-0.009l-5.363,0.23c-4.376,0.188-8.224,2.588-10.438,6.156h-4.512
		l-13.826-7.424c-0.749-0.409-1.243-1.141-1.328-1.949l-0.29-2.818c-0.358-3.414-2.061-6.564-4.734-8.727l-8.36-6.776
		c-2.333-1.89-5.227-2.903-8.173-2.903l-1.413,0.086l0.086-0.018l-44.457,4.674l0.05-0.008l-0.289,0.017l-1.413-0.417l-12.276-8.062
		h241.408C348.167,348.614,346.106,352.173,346.106,356.267z M442.564,346.222l15.069,19.292l0.511,1.294l1.431,13.741h-9.178
		l-14.762-5.73c-0.937-0.358-1.584-1.268-1.601-2.307l-0.323-15.597c-0.086-3.822-1.84-7.406-4.819-9.816l-1.09-0.876H442.564z
		 M436.094,310.04H42.328l-6.402-3.508l-1.209-1.456l-8.48-26.375h198.637v-2.988h228.502L436.094,310.04z M224.875,239.54v-34.326
		h109.79c2.179,3.516,5.891,5.924,10.25,6.155v0.068l0.375,0.008c0.016,0,0.05-0.008,0.068-0.008h0.016
		c3.594-0.026,6.981-1.54,9.4-4.129l0.034-0.034c0.562-0.605,0.851-1.37,1.277-2.06h105.464l0.732,34.326H224.875z M481.045,162.263
		l5.313,4.307l-2.588,2.461H430.39c2.299-1.252,4.257-3.022,5.449-5.347l8.309-16.286l1.363-1.209l23.106-8.624
		c1.685-0.63,3.098-1.669,4.341-2.869h22.102L481.045,162.263z"/>
</g>
</svg>
